#define b_up_width 20
#define b_up_height 20
static unsigned char b_up_bits[] = {
   0x00, 0x00, 0x00, 0x00, 0x00, 0x00, 0x00, 0x00, 0x00, 0x00, 0x0c, 0x00,
   0x00, 0x1e, 0x00, 0x00, 0x33, 0x00, 0x00, 0x33, 0x00, 0x80, 0x61, 0x00,
   0x80, 0x61, 0x00, 0xc0, 0xc0, 0x00, 0xc0, 0xc0, 0x00, 0x60, 0x80, 0x01,
   0x60, 0x80, 0x01, 0x30, 0x00, 0x03, 0x30, 0x00, 0x03, 0x18, 0x00, 0x06,
   0x18, 0x00, 0x06, 0xf8, 0xff, 0x07, 0xf0, 0xff, 0x03, 0x00, 0x00, 0x00};
